<?xml version="1.0" standalone="no"?>
<!DOCTYPE svg PUBLIC "-//W3C//DTD SVG 20010904//EN"
 "http://www.w3.org/TR/2001/REC-SVG-20010904/DTD/svg10.dtd">
<svg version="1.0" xmlns="http://www.w3.org/2000/svg"
 width="1090.000000pt" height="1090.000000pt" viewBox="0 0 1090.000000 1090.000000"
 preserveAspectRatio="xMidYMid meet">
<metadata>
Created by potrace 1.14, written by Peter Selinger 2001-2017
</metadata>
<g transform="translate(0.000000,1090.000000) scale(0.100000,-0.100000)"
fill="#000000" stroke="none">
<path d="M6204 8866 c-177 -40 -343 -147 -449 -289 -159 -210 -201 -476 -116
-725 42 -120 84 -185 191 -292 81 -82 109 -103 190 -142 135 -66 200 -82 350
-82 149 -1 215 14 345 79 188 93 322 245 390 444 67 197 53 396 -40 586 -96
196 -249 329 -460 401 -67 23 -101 27 -210 30 -87 3 -150 -1 -191 -10z m276
-337 c211 -48 359 -274 322 -490 -47 -274 -317 -436 -575 -345 -299 106 -390
476 -175 711 105 116 262 161 428 124z"/>
<path d="M2431 8109 c-46 -28 -68 -56 -80 -106 -13 -50 -24 -12 263 -898 l204
-629 -280 -561 c-274 -548 -280 -561 -275 -608 7 -55 36 -100 81 -128 l31 -19
-145 0 c-80 0 -174 -5 -210 -10 -214 -34 -392 -216 -420 -430 -5 -44 -10 -457
-10 -987 l0 -913 -24 0 c-29 0 -82 -36 -110 -73 -16 -22 -21 -43 -21 -92 0
-71 17 -103 75 -142 l33 -23 3887 0 3887 0 33 23 c58 39 75 71 75 142 0 71
-17 103 -75 143 -33 22 -36 22 -399 22 -346 0 -364 1 -333 17 18 9 45 32 60
51 26 34 27 41 30 184 l3 150 63 61 c35 34 75 85 88 112 33 65 545 1773 554
1845 24 212 -131 428 -349 486 -193 51 -414 -46 -511 -225 -17 -32 -112 -332
-235 -740 l-206 -686 -470 -5 -470 -5 -76 -36 c-291 -139 -357 -512 -131 -738
92 -93 211 -141 350 -141 l62 0 0 -105 c0 -134 16 -168 95 -209 28 -15 -18
-16 -545 -15 -521 0 -570 2 -521 15 167 45 302 175 357 344 16 49 18 107 22
498 l3 443 73 54 73 55 444 0 c490 0 508 2 621 62 163 87 261 256 260 446 0
82 -3 93 -367 1180 -203 603 -382 1126 -399 1162 -36 77 -136 182 -212 222
-106 57 -256 74 -364 42 -29 -8 -256 -95 -504 -193 l-452 -177 -405 118 c-222
65 -420 123 -440 128 l-36 10 10 55 c14 73 -2 122 -52 168 -67 60 -152 62
-218 4 -45 -40 -56 -67 -78 -195 -17 -97 -20 -103 -51 -123 -45 -28 -121 -113
-149 -169 -79 -156 -73 -355 15 -493 l30 -48 -50 -267 c-27 -147 -50 -286 -50
-310 0 -51 19 -91 60 -125 l30 -25 -31 -7 c-39 -9 -98 -61 -115 -102 -8 -18
-14 -48 -14 -67 l0 -35 -358 -3 -359 -3 -36 -28 c-48 -37 -71 -81 -70 -139 1
-57 26 -104 73 -135 l33 -23 -187 0 -187 0 36 31 c47 42 65 78 65 131 0 62
-35 118 -90 146 -43 21 -53 22 -337 22 -161 0 -293 3 -292 8 0 4 58 122 128
261 l128 255 32 -97 c48 -143 83 -177 184 -177 44 0 62 6 94 29 41 29 73 89
73 135 0 35 -678 2127 -699 2156 -50 70 -150 92 -220 49z m4699 -1111 c18 -13
41 -34 51 -48 21 -29 739 -2157 746 -2210 5 -43 -29 -115 -70 -144 -28 -20
-44 -21 -535 -26 l-507 -5 -182 -140 -182 -140 -1 -495 c0 -494 0 -496 -22
-540 -32 -61 -66 -83 -135 -88 -48 -3 -64 0 -92 20 -19 12 -44 36 -55 51 -21
28 -21 38 -24 590 -2 493 -1 567 13 604 14 36 46 64 268 235 139 107 265 203
282 214 27 18 54 19 438 22 l408 3 -7 22 c-4 12 -112 335 -240 717 l-233 695
33 27 c44 36 69 99 61 151 -9 52 -65 113 -116 127 -51 14 -72 8 -338 -97 -119
-46 -318 -125 -443 -174 -124 -49 -239 -89 -255 -89 -17 0 -267 69 -557 154
-490 142 -530 156 -562 187 -82 79 -61 210 42 260 32 15 56 20 84 16 21 -3
250 -67 509 -142 l471 -138 508 201 c556 220 575 225 642 180z m-1740 -904
c475 -139 533 -154 600 -154 76 0 155 25 455 144 160 63 293 111 296 108 7 -7
319 -942 319 -955 0 -4 -85 -7 -188 -7 -201 0 -250 -8 -342 -55 -53 -28 -536
-397 -598 -458 -54 -53 -96 -117 -124 -193 -22 -58 -23 -67 -26 -639 -3 -644
-1 -674 56 -788 62 -125 166 -211 312 -258 l55 -18 -302 0 -303 -1 0 933 c0
623 -4 953 -11 993 -31 172 -170 331 -336 384 l-58 19 40 0 c115 2 195 73 195
173 0 62 -35 118 -90 146 -43 21 -54 22 -315 22 l-271 0 4 33 c4 43 -34 116
-75 143 l-32 22 39 6 c45 7 102 52 119 93 6 16 27 116 46 223 46 248 40 231
73 220 15 -5 223 -66 462 -136z m3628 -708 c32 -17 62 -65 62 -99 0 -15 -115
-411 -256 -880 -227 -758 -258 -855 -285 -882 l-29 -30 -636 0 -636 0 -34 37
c-26 29 -34 46 -34 76 0 51 35 103 80 119 25 9 184 12 576 12 l541 1 13 43
c320 1071 472 1562 487 1579 34 38 106 50 151 24z m-3852 -585 c23 -10 52 -34
65 -52 l24 -34 3 -947 2 -948 -1665 0 -1665 0 0 933 0 934 23 43 c16 30 37 51
67 67 l43 23 1531 0 c1471 0 1533 -1 1572 -19z m3214 -1756 c0 -134 16 -168
95 -209 28 -15 -7 -16 -430 -16 -433 0 -458 1 -427 17 18 9 45 32 60 51 25 33
27 44 30 149 l4 113 334 0 334 0 0 -105z"/>
</g>
</svg>
